<?xml version="1.0" standalone="no"?>
<!DOCTYPE svg PUBLIC "-//W3C//DTD SVG 20010904//EN"
 "http://www.w3.org/TR/2001/REC-SVG-20010904/DTD/svg10.dtd">
<svg version="1.0" xmlns="http://www.w3.org/2000/svg"
 width="300.000000pt" height="300.000000pt" viewBox="0 0 300.000000 300.000000"
 preserveAspectRatio="xMidYMid meet">
<metadata>
Created by potrace 1.11, written by Peter Selinger 2001-2013
</metadata>
<g transform="translate(0.000000,300.000000) scale(0.100000,-0.100000)"
fill="#000000" stroke="none">
<path d="M943 2464 c-73 -12 -113 -28 -113 -44 0 -6 -8 -10 -19 -10 -23 0 -93
-74 -119 -127 -36 -70 -55 -155 -56 -248 -1 -93 18 -195 36 -195 6 0 8 -9 5
-19 -8 -33 87 -205 238 -431 79 -119 149 -228 156 -243 7 -15 19 -27 26 -27 9
0 12 -6 8 -19 -3 -10 -1 -31 6 -47 16 -44 14 -163 -5 -208 -9 -22 -14 -41 -11
-44 9 -9 -65 -42 -96 -42 -40 0 -93 51 -109 105 -6 22 -14 82 -17 133 -5 79
-8 92 -22 88 -9 -2 -59 -7 -111 -11 -150 -10 -140 -3 -140 -100 0 -46 7 -117
15 -157 16 -78 63 -183 82 -183 6 0 15 -3 19 -8 4 -4 2 -7 -5 -7 -9 0 -9 -3 1
-13 34 -33 71 -55 82 -51 8 3 16 -1 19 -9 8 -21 98 -40 191 -40 92 -1 140 8
130 24 -4 7 1 9 14 5 38 -12 146 61 135 91 -3 8 2 13 13 13 22 0 65 86 84 168
27 116 11 355 -25 368 -6 3 -12 19 -12 36 0 18 -7 36 -17 44 -10 7 -16 17 -13
22 8 12 -31 74 -43 67 -6 -3 -9 4 -8 17 2 29 -79 158 -99 158 -8 0 -13 6 -10
13 3 7 -9 33 -26 57 -188 275 -217 336 -217 452 0 95 28 158 78 172 70 20 121
-55 130 -190 2 -46 9 -84 14 -84 5 0 52 5 106 11 53 6 111 12 127 13 l30 1 -3
59 c-2 42 -7 63 -20 72 -16 13 -16 13 1 14 13 0 17 6 14 18 -30 109 -50 164
-63 169 -8 3 -13 11 -10 18 6 18 -79 101 -129 125 -59 29 -157 39 -242 24z
m32 -54 c-5 -8 -11 -8 -17 -2 -6 6 -7 16 -3 22 5 8 11 8 17 2 6 -6 7 -16 3
-22z m-139 -47 c-10 -10 -19 5 -10 18 6 11 8 11 12 0 2 -7 1 -15 -2 -18z m274
-3 c0 -5 -4 -10 -10 -10 -5 0 -10 5 -10 10 0 6 5 10 10 10 6 0 10 -4 10 -10z
m140 -30 c0 -5 -2 -10 -4 -10 -3 0 -8 5 -11 10 -3 6 -1 10 4 10 6 0 11 -4 11
-10z m-490 -70 c0 -5 -4 -10 -10 -10 -5 0 -10 5 -10 10 0 6 5 10 10 10 6 0 10
-4 10 -10z m90 -10 c0 -5 -4 -10 -10 -10 -5 0 -10 5 -10 10 0 6 5 10 10 10 6
0 10 -4 10 -10z m510 -70 c0 -5 -2 -10 -4 -10 -3 0 -8 5 -11 10 -3 6 -1 10 4
10 6 0 11 -4 11 -10z m-440 -10 c0 -5 -4 -10 -10 -10 -5 0 -10 5 -10 10 0 6 5
10 10 10 6 0 10 -4 10 -10z m377 -82 c-3 -8 -6 -5 -6 6 -1 11 2 17 5 13 3 -3
4 -12 1 -19z m80 -70 c-3 -8 -6 -5 -6 6 -1 11 2 17 5 13 3 -3 4 -12 1 -19z
m-142 -27 c3 -5 1 -12 -5 -16 -5 -3 -10 1 -10 9 0 18 6 21 15 7z m60 -11 c-3
-5 -11 -10 -16 -10 -6 0 -7 5 -4 10 3 6 11 10 16 10 6 0 7 -4 4 -10z m-375
-90 c0 -5 -4 -10 -10 -10 -5 0 -10 5 -10 10 0 6 5 10 10 10 6 0 10 -4 10 -10z
m120 -199 c0 -12 -20 -25 -27 -18 -7 7 6 27 18 27 5 0 9 -4 9 -9z m20 -21 c0
-5 -4 -10 -10 -10 -5 0 -10 5 -10 10 0 6 5 10 10 10 6 0 10 -4 10 -10z m-100
-14 c0 -3 -4 -8 -10 -11 -5 -3 -10 -1 -10 4 0 6 5 11 10 11 6 0 10 -2 10 -4z
m60 0 c0 -3 -4 -8 -10 -11 -5 -3 -10 -1 -10 4 0 6 5 11 10 11 6 0 10 -2 10 -4z
m-20 -87 c0 -6 -4 -7 -10 -4 -5 3 -10 11 -10 16 0 6 5 7 10 4 6 -3 10 -11 10
-16z m40 12 c0 -12 -20 -25 -27 -18 -7 7 6 27 18 27 5 0 9 -4 9 -9z m0 -41 c0
-5 -4 -10 -9 -10 -6 0 -13 5 -16 10 -3 6 1 10 9 10 9 0 16 -4 16 -10z m-30
-24 c0 -3 -4 -8 -10 -11 -5 -3 -10 -1 -10 4 0 6 5 11 10 11 6 0 10 -2 10 -4z
m90 -44 c0 -13 -12 -22 -22 -16 -10 6 -1 24 13 24 5 0 9 -4 9 -8z m-96 -73
c-3 -5 -10 -7 -15 -3 -5 3 -7 10 -3 15 3 5 10 7 15 3 5 -3 7 -10 3 -15z m146
-3 c0 -3 -4 -8 -10 -11 -5 -3 -10 -1 -10 4 0 6 5 11 10 11 6 0 10 -2 10 -4z
m26 -83 c20 -27 16 -38 -6 -18 -20 18 -26 35 -14 35 4 0 13 -8 20 -17z m49
-43 c3 -5 1 -10 -4 -10 -6 0 -11 5 -11 10 0 6 2 10 4 10 3 0 8 -4 11 -10z
m-25 -10 c0 -5 -4 -10 -10 -10 -5 0 -10 5 -10 10 0 6 5 10 10 10 6 0 10 -4 10
-10z m5 -30 c-3 -5 -11 -10 -16 -10 -6 0 -7 5 -4 10 3 6 11 10 16 10 6 0 7 -4
4 -10z m-118 -25 c8 -22 -6 -33 -17 -15 -13 20 -12 30 0 30 6 0 13 -7 17 -15z
m191 -57 c-6 -18 -28 -21 -28 -4 0 9 7 16 16 16 9 0 14 -5 12 -12z m-98 -38
c0 -5 -4 -10 -10 -10 -5 0 -10 5 -10 10 0 6 5 10 10 10 6 0 10 -4 10 -10z m16
-105 c7 -13 9 -26 7 -29 -8 -8 -33 21 -33 38 0 24 13 19 26 -9z m154 -85 c0
-5 -4 -10 -10 -10 -5 0 -10 5 -10 10 0 6 5 10 10 10 6 0 10 -4 10 -10z m-142
-169 c3 -16 0 -22 -10 -18 -7 2 -12 10 -10 16 1 6 -3 11 -9 11 -5 0 -7 5 -4
11 11 16 30 5 33 -20z m22 -45 c0 -15 -37 -32 -47 -22 -4 3 1 6 10 6 10 0 17
7 17 15 0 8 5 15 10 15 6 0 10 -6 10 -14z"/>
<path d="M1680 2219 c0 -209 2 -253 15 -265 17 -18 20 -34 4 -34 -5 0 -8 4 -4
9 3 5 1 12 -4 16 -6 3 -10 -142 -11 -391 0 -268 3 -393 10 -389 5 3 10 1 10
-4 0 -6 -4 -11 -10 -11 -16 0 -13 -467 3 -473 10 -4 10 -6 0 -6 -9 -1 -13 -21
-13 -65 l0 -64 95 0 c77 0 97 4 105 17 8 14 9 14 10 -1 0 -14 8 -18 35 -18 33
0 35 2 35 33 -1 26 -2 29 -11 14 -5 -9 -15 -17 -21 -17 -7 0 -6 5 2 15 7 8 9
15 5 15 -4 0 0 11 9 25 14 21 16 60 16 265 0 171 -3 240 -11 240 -8 0 -8 4 -2
13 5 6 10 58 11 115 1 100 0 103 -19 97 -12 -4 -30 -16 -41 -27 -25 -25 -37
-15 -14 11 13 15 14 20 4 24 -11 4 -11 7 0 18 11 12 16 11 28 -6 14 -19 15
-19 20 3 4 12 14 22 23 22 12 0 10 5 -9 19 -20 16 -22 21 -11 35 17 20 34 10
26 -15 -5 -13 -2 -19 10 -19 8 0 18 -7 21 -15 5 -11 25 -14 90 -14 46 1 84 5
84 10 0 5 5 9 11 9 5 0 7 -4 4 -10 -3 -5 3 -10 14 -10 30 0 30 56 0 65 -25 8
-23 51 3 49 14 -1 17 9 17 65 0 98 -2 102 -57 99 -26 -2 -50 -7 -54 -13 -5 -6
-11 -6 -16 3 -5 7 -17 12 -28 11 -10 -1 -38 -1 -61 -1 l-43 2 0 59 c0 43 -4
60 -15 65 -8 3 -15 10 -15 15 0 5 7 16 15 25 8 8 15 25 15 37 0 22 -1 22 -13
4 -9 -11 -16 -14 -21 -7 -9 15 4 42 20 42 11 0 14 27 14 140 l0 140 175 0
c124 0 174 3 173 11 -2 6 3 14 11 17 10 3 12 0 8 -12 -4 -10 -1 -16 9 -16 13
0 15 21 13 140 l-1 140 -334 0 -334 0 0 -251z m440 221 c0 -5 -4 -10 -10 -10
-5 0 -10 5 -10 10 0 6 5 10 10 10 6 0 10 -4 10 -10z m-70 -20 c0 -5 -4 -10
-10 -10 -5 0 -10 5 -10 10 0 6 5 10 10 10 6 0 10 -4 10 -10z m-180 -4 c0 -3
-4 -8 -10 -11 -5 -3 -10 -1 -10 4 0 6 5 11 10 11 6 0 10 -2 10 -4z m380 -41
c-7 -8 -16 -15 -21 -15 -5 0 -1 9 8 20 9 11 19 17 21 15 3 -3 -1 -11 -8 -20z
m-336 -3 c2 -4 1 -14 -4 -22 -7 -11 -12 -12 -21 -3 -6 6 -8 16 -5 22 8 13 23
14 30 3z m-41 -53 c-6 -6 -9 -19 -6 -28 5 -14 3 -13 -13 2 -16 15 -17 19 -4
27 21 13 36 12 23 -1z m37 -19 c0 -5 -4 -10 -10 -10 -5 0 -10 5 -10 10 0 6 5
10 10 10 6 0 10 -4 10 -10z m255 0 c-3 -5 -15 -10 -26 -10 -11 0 -17 5 -14 10
3 6 15 10 26 10 11 0 17 -4 14 -10z m94 -16 c2 -2 2 -6 0 -9 -8 -7 -49 7 -49
17 0 8 38 2 49 -8z m-209 -9 c0 -8 -4 -15 -10 -15 -5 0 -10 7 -10 15 0 8 5 15
10 15 6 0 10 -7 10 -15z m260 -5 c0 -5 -7 -10 -15 -10 -8 0 -15 5 -15 10 0 6
7 10 15 10 8 0 15 -4 15 -10z m-230 -10 c0 -5 -2 -10 -4 -10 -3 0 -8 5 -11 10
-3 6 -1 10 4 10 6 0 11 -4 11 -10z m110 -9 c0 -6 -4 -13 -10 -16 -5 -3 -10 1
-10 9 0 9 5 16 10 16 6 0 10 -4 10 -9z m-160 -41 c0 -5 -4 -10 -10 -10 -5 0
-10 5 -10 10 0 6 5 10 10 10 6 0 10 -4 10 -10z m130 0 c0 -5 -5 -10 -11 -10
-5 0 -7 5 -4 10 3 6 8 10 11 10 2 0 4 -4 4 -10z m-450 -20 c0 -5 -4 -10 -10
-10 -5 0 -10 5 -10 10 0 6 5 10 10 10 6 0 10 -4 10 -10z m120 -136 c0 -8 -4
-12 -10 -9 -5 3 -10 10 -10 16 0 5 5 9 10 9 6 0 10 -7 10 -16z m15 -204 c7
-11 -18 -40 -34 -40 -6 0 -11 5 -11 10 0 6 5 10 10 10 6 0 10 7 10 15 0 17 16
20 25 5z m-7 -96 c-9 -9 -21 -13 -28 -9 -8 5 -4 11 12 19 29 16 37 10 16 -10z
m-97 -5 c-12 -12 -25 -18 -28 -15 -4 3 2 13 13 21 29 22 41 18 15 -6z m44 11
c3 -5 1 -10 -4 -10 -6 0 -11 5 -11 10 0 6 2 10 4 10 3 0 8 -4 11 -10z m165 1
c0 -6 -4 -13 -10 -16 -5 -3 -10 1 -10 9 0 9 5 16 10 16 6 0 10 -4 10 -9z m-82
-23 c-3 -7 -13 -15 -24 -17 -16 -3 -17 -1 -5 13 16 19 34 21 29 4z m69 -23 c8
-22 -6 -33 -17 -15 -13 20 -12 30 0 30 6 0 13 -7 17 -15z m0 -63 c18 -25 16
-52 -4 -52 -13 0 -10 -5 11 -19 l29 -19 -37 1 c-36 1 -56 23 -41 47 3 6 -1 24
-9 41 l-15 31 26 -7 c15 -3 33 -14 40 -23z m-85 -7 c12 5 16 -1 16 -20 0 -15
-3 -23 -7 -18 -3 5 -15 13 -25 17 -20 7 -20 7 0 -15 19 -22 19 -22 0 -15 -12
4 -22 2 -27 -6 -6 -9 -13 -8 -28 6 -12 11 -21 24 -21 30 0 6 5 5 12 -2 7 -7
17 -12 22 -12 6 0 6 4 -1 11 -6 6 -8 19 -6 29 5 17 7 18 28 4 12 -8 29 -12 37
-9z m206 -22 c4 -26 -13 -31 -22 -7 -4 10 -13 13 -26 9 -11 -3 -20 -2 -20 3 0
15 9 19 38 18 20 -1 28 -7 30 -23z m121 8 c9 -6 5 -8 -13 -8 -14 0 -26 3 -26
8 0 11 21 11 39 0z m-49 -36 c7 -8 9 -15 6 -15 -4 0 -14 7 -22 15 -9 8 -11 15
-6 15 5 0 15 -7 22 -15z m-113 -34 c0 -20 -4 -28 -14 -24 -16 6 -17 25 -1 41
16 16 15 17 15 -17z m93 9 c0 -14 6 -20 18 -18 9 2 16 -3 15 -9 -2 -7 2 -13 9
-13 6 0 8 -3 5 -7 -4 -3 -2 -12 5 -20 8 -10 8 -17 0 -25 -16 -16 -15 -28 3
-28 8 0 15 -4 15 -10 0 -5 -16 -10 -36 -10 -32 0 -35 2 -23 16 18 22 23 84 6
84 -8 0 -19 11 -25 25 -15 32 -15 35 -2 35 6 0 10 -9 10 -20z m100 10 c0 -5
-7 -10 -16 -10 -8 0 -12 5 -9 10 3 6 10 10 16 10 5 0 9 -4 9 -10z m-411 -41
c-18 -11 -39 -11 -39 0 0 11 31 20 44 13 4 -2 2 -8 -5 -13z m141 -6 c0 -15 1
-15 19 1 17 16 19 16 24 -4 3 -13 0 -20 -9 -20 -7 0 -22 -9 -32 -21 -18 -19
-20 -19 -26 -2 -4 10 -2 19 3 21 6 2 11 8 11 14 0 5 -9 6 -20 3 -11 -3 -20 -2
-20 4 0 8 16 16 43 20 4 0 7 -6 7 -16z m-105 -53 c-4 -6 -12 -9 -19 -7 -6 3
-20 -1 -31 -9 -36 -27 -39 -14 -5 20 29 29 37 33 49 21 7 -7 10 -18 6 -25z
m285 22 c0 -14 -23 -32 -42 -32 -10 0 -18 -4 -18 -10 0 -5 -6 -10 -14 -10 -8
0 -18 -9 -21 -21 -8 -23 -30 -21 -30 4 0 8 -4 19 -8 23 -4 4 -7 14 -7 22 0 13
3 12 19 -2 17 -16 21 -16 57 1 22 10 41 21 42 26 5 10 22 9 22 -1z m-210 -63
c0 -10 -5 -19 -11 -19 -6 0 -9 7 -5 15 3 8 1 15 -5 15 -6 0 -7 5 -4 10 9 15
25 2 25 -21z m-50 11 c0 -5 -4 -10 -10 -10 -5 0 -10 5 -10 10 0 6 5 10 10 10
6 0 10 -4 10 -10z m-105 -50 c-3 -5 -11 -10 -16 -10 -6 0 -7 5 -4 10 3 6 11
10 16 10 6 0 7 -4 4 -10z m102 -12 c-3 -8 -6 -5 -6 6 -1 11 2 17 5 13 3 -3 4
-12 1 -19z m-137 -18 c0 -5 -4 -10 -10 -10 -5 0 -10 5 -10 10 0 6 5 10 10 10
6 0 10 -4 10 -10z m17 -66 c-9 -9 -28 6 -21 18 4 6 10 6 17 -1 6 -6 8 -13 4
-17z m196 1 c8 -19 -13 -31 -24 -14 -13 20 -11 29 5 29 8 0 16 -7 19 -15z
m-203 -35 c0 -5 -4 -10 -10 -10 -5 0 -10 5 -10 10 0 6 5 10 10 10 6 0 10 -4
10 -10z m170 -10 c0 -5 -4 -10 -10 -10 -5 0 -10 5 -10 10 0 6 5 10 10 10 6 0
10 -4 10 -10z m37 -96 c2 -5 -13 -9 -32 -10 -27 0 -32 2 -24 13 12 14 51 12
56 -3z m-97 -24 c0 -5 -8 -10 -17 -10 -15 0 -16 2 -3 10 19 12 20 12 20 0z
m76 -38 c-4 -3 -11 0 -16 8 -15 24 -11 33 6 15 9 -9 13 -19 10 -23z m-206 13
c0 -8 -2 -15 -4 -15 -2 0 -6 7 -10 15 -3 8 -1 15 4 15 6 0 10 -7 10 -15z m100
-49 c0 -3 -4 -8 -10 -11 -5 -3 -10 -1 -10 4 0 6 5 11 10 11 6 0 10 -2 10 -4z
m25 -45 c-5 -9 -45 -22 -45 -16 0 2 7 11 16 19 15 16 39 13 29 -3z m50 9 c-3
-5 -10 -10 -16 -10 -5 0 -9 5 -9 10 0 6 7 10 16 10 8 0 12 -4 9 -10z m-85 -60
c0 -5 -4 -10 -10 -10 -5 0 -10 5 -10 10 0 6 5 10 10 10 6 0 10 -4 10 -10z
m115 0 c-3 -5 -12 -10 -18 -10 -7 0 -6 4 3 10 19 12 23 12 15 0z m-149 -67
c-7 -7 -26 7 -26 19 0 6 6 6 15 -2 9 -7 13 -15 11 -17z m104 17 c0 -5 -4 -10
-10 -10 -5 0 -10 5 -10 10 0 6 5 10 10 10 6 0 10 -4 10 -10z m27 -39 c0 -11
-6 -17 -14 -14 -14 6 -17 16 -6 26 12 13 22 7 20 -12z m48 -11 c-3 -5 -10 -10
-16 -10 -5 0 -9 5 -9 10 0 6 7 10 16 10 8 0 12 -4 9 -10z m-225 -50 c0 -5 -4
-10 -10 -10 -5 0 -10 5 -10 10 0 6 5 10 10 10 6 0 10 -4 10 -10z m150 -244 c0
-11 -19 -15 -25 -6 -3 5 1 10 9 10 9 0 16 -2 16 -4z"/>
<path d="M2206 1475 c-3 -8 -1 -15 4 -15 6 0 10 7 10 15 0 8 -2 15 -4 15 -2 0
-6 -7 -10 -15z"/>
</g>
</svg>
